# Blender v2.75 (sub 0) OBJ File: ''
# www.blender.org
mtllib olfato_partes.mtl
o polySurface1
v -0.287683 14.207714 34.908279
v -0.287683 14.207717 20.464277
v -0.287683 12.232924 20.464277
v -0.287683 12.232922 34.908279
v 0.131817 12.232924 20.464277
v 0.131817 12.232922 34.908279
v 0.131817 14.207717 20.464277
v 0.131817 14.207714 34.908279
v 0.131817 12.232924 20.464277
v 0.131817 14.207717 20.464277
v 0.131817 14.207714 34.908279
v 0.131817 12.232922 34.908279
v -0.257183 12.230225 20.333078
v -0.257183 14.205123 20.333078
v -0.257183 15.942017 15.911280
v 0.162317 14.205123 20.333078
v 0.162317 12.230225 20.333078
v 0.162317 15.942017 15.911280
v 0.564828 19.228336 20.308180
v 0.564828 17.219172 20.308178
v 0.564828 18.049702 14.015956
v 0.145328 17.219172 20.308178
v 0.145328 19.228336 20.308180
v 0.145328 18.049702 14.015956
v 0.145328 19.236940 34.867371
v 0.145328 19.236942 20.423370
v 0.145328 17.262135 20.423368
v 0.145328 17.262133 34.867371
v 0.564828 17.262135 20.423368
v 0.564828 17.262133 34.867371
v 0.564828 19.236942 20.423370
v 0.564828 19.236940 34.867371
v 0.564828 17.262135 20.423368
v 0.564828 19.236942 20.423370
v 0.564828 19.236940 34.867371
v 0.564828 17.262133 34.867371
v 0.517603 23.386904 20.233889
v 0.517603 21.412096 20.233889
v 0.517603 21.765867 11.684270
v 0.098104 21.412096 20.233889
v 0.098104 23.386904 20.233889
v 0.098104 21.765867 11.684270
v 0.098104 23.431107 34.791119
v 0.098104 23.431108 20.347019
v 0.098104 21.456408 20.347019
v 0.098104 21.456406 34.791119
v 0.517603 21.456408 20.347019
v 0.517603 21.456406 34.791119
v 0.517603 23.431108 20.347019
v 0.517603 23.431107 34.791119
v 0.517603 21.456408 20.347019
v 0.517603 23.431108 20.347019
v 0.517603 23.431107 34.791119
v 0.517603 21.456406 34.791119
v 0.449713 27.432800 34.801414
v 0.449713 27.432802 20.357414
v 0.449713 25.457994 20.357414
v 0.449713 25.457993 34.801414
v 0.869214 25.457994 20.357414
v 0.869214 25.457993 34.801414
v 0.869214 27.432802 20.357414
v 0.869214 27.432800 34.801414
v 0.869214 25.457994 20.357414
v 0.869214 27.432802 20.357414
v 0.869214 27.432800 34.801414
v 0.869214 25.457993 34.801414
v 0.869214 27.489809 20.244282
v 0.869214 25.514894 20.244282
v 0.869214 22.222807 7.779467
v 0.449713 25.514894 20.244282
v 0.449713 27.489809 20.244282
v 0.449713 22.222807 7.779467
vt 0.000000 1.000000
vt 1.000000 1.000000
vt 1.000000 0.000000
vt 0.000000 0.000000
vt 1.000000 0.736800
vt 0.000000 0.368400
vn -1.000000 0.000000 0.000000
vn 0.000000 -1.000000 -0.000000
vn 0.000000 0.000000 -1.000000
vn 0.000000 1.000000 0.000000
vn 0.000000 0.000000 1.000000
vn -0.734500 0.000000 -0.678600
vn -0.734500 0.000100 -0.678600
vn 0.734500 0.000000 0.678600
vn 0.000000 0.930800 0.365600
vn 0.000000 -0.765900 -0.642900
vn 1.000000 0.000000 0.000000
vn -0.000000 -0.938300 -0.345700
vn 0.000000 0.938300 -0.345700
vn 0.000000 -0.927500 0.373800
vn 0.000000 0.825100 -0.565000
g polySurface1_polySurface1_cuerpo
usemtl cuerpo
s 1
f 1/1/1 2/2/1 3/3/1 4/4/1
f 4/4/2 3/3/2 5/3/2 6/4/2
f 3/3/3 2/2/3 7/2/3 5/3/3
f 2/2/4 1/1/4 8/1/4 7/2/4
f 1/1/5 4/4/5 6/4/5 8/1/5
f 13/5/6 14/3/6 15/6/7
f 16/3/8 17/5/8 18/6/8
f 15/6/9 14/3/9 16/3/9 18/6/9
f 14/3/5 13/5/5 17/5/5 16/3/5
f 13/5/10 15/6/10 18/6/10 17/5/10
f 19/5/11 20/3/11 21/6/11
f 22/3/1 23/5/1 24/6/1
f 21/6/12 20/3/12 22/3/12 24/6/12
f 20/3/5 19/5/5 23/5/5 22/3/5
f 19/5/13 21/6/13 24/6/13 23/5/13
f 25/1/1 26/2/1 27/3/1 28/4/1
f 28/4/2 27/3/2 29/3/2 30/4/2
f 27/3/3 26/2/3 31/2/3 29/3/3
f 26/2/4 25/1/4 32/1/4 31/2/4
f 25/1/5 28/4/5 30/4/5 32/1/5
f 37/5/11 38/3/11 39/6/11
f 40/3/1 41/5/1 42/6/1
f 39/6/12 38/3/12 40/3/12 42/6/12
f 38/3/5 37/5/5 41/5/5 40/3/5
f 37/5/13 39/6/13 42/6/13 41/5/13
f 43/1/1 44/2/1 45/3/1 46/4/1
f 46/4/2 45/3/2 47/3/2 48/4/2
f 45/3/3 44/2/3 49/2/3 47/3/3
f 44/2/4 43/1/4 50/1/4 49/2/4
f 43/1/5 46/4/5 48/4/5 50/1/5
f 55/1/1 56/2/1 57/3/1 58/4/1
f 58/4/2 57/3/2 59/3/2 60/4/2
f 57/3/3 56/2/3 61/2/3 59/3/3
f 56/2/4 55/1/4 62/1/4 61/2/4
f 55/1/5 58/4/5 60/4/5 62/1/5
f 67/5/11 68/3/11 69/6/11
f 70/3/1 71/5/1 72/6/1
f 69/6/14 68/3/14 70/3/14 72/6/14
f 68/3/5 67/5/5 71/5/5 70/3/5
f 67/5/15 69/6/15 72/6/15 71/5/15
g polySurface1_polySurface1_letrero1
usemtl letrero1
f 63/3/11 64/2/11 65/1/11 66/4/11
g polySurface1_polySurface1_letrero3
usemtl letrero3
f 33/3/11 34/2/11 35/1/11 36/4/11
g polySurface1_polySurface1_letrero2
usemtl letrero2
f 51/3/11 52/2/11 53/1/11 54/4/11
g polySurface1_polySurface1_letrero4
usemtl letrero4
f 9/3/11 10/2/11 11/1/11 12/4/11
